<svg fill="none" height="100%" width="100%" viewBox="0 0 400 400" xmlns:xlink="http://www.w3.org/1999/xlink" xmlns="http://www.w3.org/2000/svg"><g id="i0"><animate repeatCount="indefinite" attributeName="opacity" dur="1.083s" begin="0s" fill="freeze" values="1; 1; 0; 0" keyTimes="0; 0.507692; 0.984615; 1" keySplines="0 0 1 1; 0.6 0 0.4 1; 0 0 1 1" calcMode="spline" /><g transform="translate(81.25,303.25)"><animateTransform repeatCount="indefinite" type="translate" attributeName="transform" dur="1.083s" begin="0s" calcMode="spline" values="81.25 303.25; 81.25 303.25; 49.25 466.25; 49.25 466.25" keyTimes="0; 0.461538; 1; 1" keySplines="0 0 1 1; 0.6 0 0.4 1; 0 0 1 1" fill="freeze" /><g transform="rotate(0)"><animateTransform repeatCount="indefinite" type="rotate" attributeName="transform" dur="1.083s" begin="0s" calcMode="spline" values="0; 0; -56; -56" keyTimes="0; 0.461538; 0.692308; 1" keySplines="0 0 1 1; 0.6 0 0.4 1; 0 0 1 1" fill="freeze" /><g transform="scale(0.181,0.181) translate(-296.706,-356.03)"><g id="i1" transform="matrix(1,0,0,1,208.114,179.868)"><path fill="#000000" d="M-70.054,-178.66C-71.02,-177.691,-71.812,-168.98,-71.812,-159.297C-71.812,-135.474,-74.928,-132.395,-96.291,-135.1C-101.585,-135.771,-110.405,-136.066,-115.433,-135.972C-115.433,-135.972,-115.433,-109.37,-115.433,-109.37C-108.785,-108.858,-98.633,-106.534,-92.601,-102.239C-71.527,-87.232,-62.222,16.362,-79.393,44.838C-123.891,118.642,-205.319,36.087,-175.104,-52.196C-162.959,-87.685,-138.006,-109.632,-114.384,-109.462C-114.384,-109.462,-114.384,-135.873,-114.384,-135.873C-176.067,-133.117,-215.886,-73.616,-206.834,7.737C-200.158,67.74,-169.517,97.098,-108.262,102.185C-76.199,104.848,-71.812,107.713,-71.812,125.982C-71.812,171.792,-49.296,180.115,73.99,179.868C170.177,179.675,197.154,175.205,210.445,157.253C215.829,149.981,215.886,148.183,215.886,-14.584C215.886,-14.584,215.886,-179.072,215.886,-179.072C215.886,-179.072,73.795,-179.743,73.795,-179.743C-4.355,-180.115,-69.088,-179.626,-70.054,-178.66Z" /></g></g></g></g></g><g transform="matrix(1,0,0,1,190,183)" id="i2"><g id="i3"><path stroke-width="2" stroke="#ffffff" fill="#000000" d="M-71.125,-70.75C-79.625,-49.25,-77.75,-11,-76,0.25C-74.25,11.5,-66.75,16,-64,48.75C-61.25,81.5,-60,110.25,-60,110.25C-60,110.25,-69.548,111.007,-67,119.5C-66.25,122,-67.25,122,-62.25,122C-57.25,122,62.5,122,62.5,122C62.5,122,64.5,117,65.5,108.5C66.5,100,70,91.5,60,54.5C50,17.5,36,15,34.5,-2.5C33,-20,33,-39.5,24,-67C15,-94.5,9.339,-67.296,7,-59.5C6.625,-58.25,-28.565,-65.14,-56.125,-58.25C-57,-58,-62.625,-92.25,-71.125,-70.75Z" /></g><g id="i4"><path d="" /></g></g><g transform="matrix(1,0,0,1,191.375,183)" id="i5"><g id="i6" transform="matrix(1,0,0,1,-0.75,-24.75)"><ellipse ry="16.5" rx="16.5" cy="0" cx="0" fill="#ededed" /></g><g><g transform="translate(-1.375,-42.688)"><g transform="scale(1,1)"><animateTransform repeatCount="indefinite" type="scale" attributeName="transform" dur="1.083s" begin="0s" calcMode="spline" values="1 1; 1 2; 1 1; 1 1" keyTimes="0; 0.215385; 0.4; 1" keySplines="0.78 0 0.22 1; 0.78 0 0.22 1; 0 0 1 1" fill="freeze" /><g id="i7" transform="translate(0,8)"><ellipse ry="8.563" rx="21.625" cy="0" cx="0" fill="#000000" /></g></g></g></g><g id="i8" transform="matrix(1,0,0,1,-0.812,-25.125)"><ellipse ry="8.25" rx="5.938" cy="0" cx="0" fill="#000000" /></g></g><g transform="matrix(1,0,0,1,145.375,183)" id="i9"><g id="i6" transform="matrix(1,0,0,1,-0.75,-24.75)"><ellipse ry="16.5" rx="16.5" cy="0" cx="0" fill="#ededed" /></g><g><g transform="translate(-1.375,-42.688)"><g transform="scale(1,1)"><animateTransform repeatCount="indefinite" type="scale" attributeName="transform" dur="1.083s" begin="0s" calcMode="spline" values="1 1; 1 2; 1 1; 1 1" keyTimes="0; 0.215385; 0.4; 1" keySplines="0.78 0 0.22 1; 0.78 0 0.22 1; 0 0 1 1" fill="freeze" /><g id="i7" transform="translate(0,8)"><ellipse ry="8.563" rx="21.625" cy="0" cx="0" fill="#000000" /></g></g></g></g><g id="i8" transform="matrix(1,0,0,1,-0.812,-25.125)"><ellipse ry="8.25" rx="5.938" cy="0" cx="0" fill="#000000" /></g></g><g transform="matrix(1.064,0,0,1.011,232.625,200.5)" id="i10"><g id="i3" transform="matrix(1,0,0,1,0,-0.124)"><path d="M127.5,15C127.5,15,105,17,84.5,60.5C64,104,29,92.5,20.5,92.5" stroke-linecap="round" stroke-width="20" stroke="#000000"><animate repeatCount="indefinite" attributeName="d" dur="1.083s" begin="0s" calcMode="spline" values="M127.5,15C127.5,15,105,17,84.5,60.5C64,104,29,92.5,20.5,92.5; M124.75,33.5C124.75,33.5,121.52,53.184,107,68.75C79.25,98.5,29,92.5,20.5,92.5; M130,75C130,75,130,87.5,100.5,91.75C60.233,97.551,29,92.5,20.5,92.5; M145.75,92.5C145.75,92.5,127.055,92.75,97.25,92.75C60,92.75,29,92.5,20.5,92.5; M130,75C130,75,130,87.5,100.5,91.75C60.233,97.551,29,92.5,20.5,92.5; M145.75,92.5C145.75,92.5,127.055,92.75,97.25,92.75C60,92.75,29,92.5,20.5,92.5; M127.5,15C127.5,15,105,17,84.5,60.5C64,104,29,92.5,20.5,92.5; M127.5,15C127.5,15,105,17,84.5,60.5C64,104,29,92.5,20.5,92.5" keyTimes="0; 0.061538; 0.2; 0.292308; 0.584615; 0.769231; 0.953846; 1" keySplines="0.71 0 0.29 1; 0.71 0 0.29 1; 0.71 0 0.29 1; 0.71 0 0.29 1; 0.167 0 0.29 1; 0.167 0 0.29 1; 0 0 1 1" fill="freeze" /></path></g></g><g id="i11"><g transform="translate(168.5,250)"><animateTransform repeatCount="indefinite" type="translate" attributeName="transform" dur="1.083s" begin="0s" calcMode="spline" values="168.5 250; 168.5 250; 136 250; 180.5 250; 180.5 250" keyTimes="0; 0.076923; 0.476923; 0.892307; 1" keySplines="0 0 1 1; 0.66 0 0.34 1; 0.66 0 0.34 1; 0 0 1 1" fill="freeze" /><g transform="rotate(49)"><animateTransform repeatCount="indefinite" type="rotate" attributeName="transform" dur="1.083s" begin="0s" calcMode="spline" values="49; 49; -39; -39" keyTimes="0; 0.107693; 0.815385; 1" keySplines="0 0 1 1; 0.66 0 0.34 1; 0 0 1 1" fill="freeze" /><g transform="scale(1,1) translate(66.5,-50)"><g id="i3" transform="matrix(1,0,0,1,0,0)"><path fill="#000000" d="M-68,40C-68,40,-115.5,25,-114.5,41C-113.5,57,-113.5,52.75,-109,55.75C-104.5,58.75,-99.5,57.5,-91.5,51C-83.797,44.742,-70.5,62.5,-70.5,62.5C-70.5,62.5,-68,40,-68,40Z" /></g></g></g></g></g></svg>