{
  "accessors": [
    {
      "bufferView": 2,
      "componentType": 5126,
      "count": 1608,
      "max": [
        8.158164024353027,
        28.99945068359375,
        9.552373886108398
      ],
      "min": [
        -7.324658393859863,
        6.7195353507995605,
        -3.2605857849121094
      ],
      "type": "VEC3"
    },
    {
      "bufferView": 2,
      "byteOffset": 19296,
      "componentType": 5126,
      "count": 1608,
      "max": [
        0.9994274377822876,
        0.9993327260017395,
        0.9999671578407288
      ],
      "min": [
        -0.9982710480690002,
        -0.35996684432029724,
        -0.9994254112243652
      ],
      "type": "VEC3"
    },
    {
      "bufferView": 1,
      "componentType": 5126,
      "count": 1608,
      "max": [
        0.9971951246261597,
        0.9873191714286804
      ],
      "min": [
        0.006781965494155884,
        0.0022056512534618378
      ],
      "type": "VEC2"
    },
    {
      "bufferView": 0,
      "componentType": 5125,
      "count": 6348,
      "type": "SCALAR"
    },
    {
      "bufferView": 2,
      "byteOffset": 38592,
      "componentType": 5126,
      "count": 1106,
      "max": [
        6.088330268859863,
        27.98868179321289,
        4.26078987121582
      ],
      "min": [
        -3.949174404144287,
        -0.18500053882598877,
        -2.4559080600738525
      ],
      "type": "VEC3"
    },
    {
      "bufferView": 2,
      "byteOffset": 51864,
      "componentType": 5126,
      "count": 1106,
      "max": [
        0.999216616153717,
        0.9990329742431641,
        0.9999925494194031
      ],
      "min": [
        -0.9997224807739258,
        -0.9970518350601196,
        -0.9999960660934448
      ],
      "type": "VEC3"
    },
    {
      "bufferView": 1,
      "byteOffset": 12864,
      "componentType": 5126,
      "count": 1106,
      "max": [
        0.7261697053909302,
        0.6775776147842407
      ],
      "min": [
        0.4216836094856262,
        0.012216083705425262
      ],
      "type": "VEC2"
    },
    {
      "bufferView": 0,
      "byteOffset": 25392,
      "componentType": 5125,
      "count": 5508,
      "type": "SCALAR"
    }
  ],
  "asset": {
    "extras": {
      "author": "Rosh_ (https://sketchfab.com/Rosh_)",
      "license": "CC-BY-4.0 (http://creativecommons.org/licenses/by/4.0/)",
      "source": "https://sketchfab.com/3d-models/stylized-tree-a08b7146d10d4f56944a235eeb20752c",
      "title": "Stylized Tree"
    },
    "generator": "Sketchfab-15.30.0",
    "version": "2.0"
  },
  "bufferViews": [
    {
      "buffer": 0,
      "byteLength": 47424,
      "name": "floatBufferViews",
      "target": 34963
    },
    {
      "buffer": 0,
      "byteLength": 21712,
      "byteOffset": 47424,
      "byteStride": 8,
      "name": "floatBufferViews",
      "target": 34962
    },
    {
      "buffer": 0,
      "byteLength": 65136,
      "byteOffset": 69136,
      "byteStride": 12,
      "name": "floatBufferViews",
      "target": 34962
    }
  ],
  "buffers": [
    {
      "byteLength": 134272,
      "uri": "scene.bin"
    }
  ],
  "images": [
    {
      "uri": "textures/m_stylizedTree_baseColor.png"
    },
    {
      "uri": "textures/m_stylizedTree_metallicRoughness.png"
    }
  ],
  "materials": [
    {
      "alphaMode": "BLEND",
      "doubleSided": true,
      "name": "m_stylizedTree",
      "pbrMetallicRoughness": {
        "baseColorTexture": {
          "index": 0
        },
        "metallicFactor": 0.0,
        "metallicRoughnessTexture": {
          "index": 1
        }
      }
    }
  ],
  "meshes": [
    {
      "name": "Leaves_m_stylizedTree_0",
      "primitives": [
        {
          "attributes": {
            "NORMAL": 1,
            "POSITION": 0,
            "TEXCOORD_0": 2
          },
          "indices": 3,
          "material": 0,
          "mode": 4
        }
      ]
    },
    {
      "name": "Trunk_m_stylizedTree_0",
      "primitives": [
        {
          "attributes": {
            "NORMAL": 5,
            "POSITION": 4,
            "TEXCOORD_0": 6
          },
          "indices": 7,
          "material": 0,
          "mode": 4
        }
      ]
    }
  ],
  "nodes": [
    {
      "children": [
        1
      ],
      "matrix": [
        1.0,
        0.0,
        0.0,
        0.0,
        0.0,
        2.220446049250313e-16,
        -1.0,
        0.0,
        0.0,
        1.0,
        2.220446049250313e-16,
        0.0,
        0.0,
        0.0,
        0.0,
        1.0
      ],
      "name": "Sketchfab_model"
    },
    {
      "children": [
        2
      ],
      "matrix": [
        0.009999999776482582,
        0.0,
        0.0,
        0.0,
        0.0,
        0.0,
        0.009999999776482582,
        0.0,
        0.0,
        -0.009999999776482582,
        0.0,
        0.0,
        0.0,
        0.0,
        0.0,
        1.0
      ],
      "name": "e11df33102cf4b10a16d34510dda955b.fbx"
    },
    {
      "children": [
        3
      ],
      "name": "RootNode"
    },
    {
      "children": [
        4,
        6
      ],
      "name": "Tree"
    },
    {
      "children": [
        5
      ],
      "name": "Leaves"
    },
    {
      "mesh": 0,
      "name": "Leaves_m_stylizedTree_0"
    },
    {
      "children": [
        7
      ],
      "name": "Trunk"
    },
    {
      "mesh": 1,
      "name": "Trunk_m_stylizedTree_0"
    }
  ],
  "samplers": [
    {
      "magFilter": 9729,
      "minFilter": 9987,
      "wrapS": 10497,
      "wrapT": 10497
    }
  ],
  "scene": 0,
  "scenes": [
    {
      "name": "Sketchfab_Scene",
      "nodes": [
        0
      ]
    }
  ],
  "textures": [
    {
      "sampler": 0,
      "source": 0
    },
    {
      "sampler": 0,
      "source": 1
    }
  ]
}
